<svg width="26" height="20" viewBox="0 0 26 20" xmlns="http://www.w3.org/2000/svg"><path d="M18.9124253 0c.3317469.75147475.5466734 1.99959596.2259848 2.91341414 1.3113924 1.1168889 1.7622279 3.8320404 1.1290734 6.05082828 1.8691241.14226263 4.095514-.06844444 5.5325165.50371718-1.3434329-.17224243-3.1782481-.51022223-4.9109873-.39256566-.3283443.02234343-.8146228-.01244445-.7908051.44828283 2.0057924.1569697 3.9991089.3280808 5.6459342.84084853-1.6334988-.2661415-3.6163241-.67171722-5.6459342-.72800005-.8384405 1.65030305-2.5258127 2.46145455-4.8551291 2.63228285.2503696.5435959.729843.7503434.8469468 1.6245656.1746633 1.306101-.2733367 3.2188687.1687089 4.0894142.2120911.4171717.5577316.428202.790805.7848485-.5704911.6734141-1.9848101-.075798-2.1458633-.7848485-.2758886-1.2147475.4202127-3.0978182-.3379848-3.9214142.0533064 1.3250505-.314167 3.1857778.0564254 4.3694142.1460253.4655353.5676557.6451313.451686 1.0651313-2.6517063.268404-1.5433316-3.4233535-1.9768709-5.6028283-.400081.0285657-.2242835.5976162-.2257012.8405657-.0113418 2.128.4366582 5.0467878-1.8628861 4.7622626-.0672-.4474344.3084962-.5993131.4516861-1.0077172.419362-1.1972121-.0785418-2.9815757.1137012-4.4265454-.8775696.6601212.0921519 2.9640404-.451686 4.1454141-.3133165.6799192-1.3230178.9757576-2.0888709.6722828.0998076-.5062626.6237975-.4245252.8460962-.8962828.3107645-.6572929.0022683-1.6047677.1131342-2.5768485-1.6244254.3235556-2.8844962-.0469495-3.5012051-1.0645656-.2758886-.4567677-.3442228-.9955556-.6776709-1.4002829-.3317468-.4050101-.8619747-.4595959-1.0156557-1.0077171 2.0117469-.4830707 2.0888709 2.0652121 3.8956152 2.128.5540456.0200808.8421266-.1592324 1.3547747-.2794344.1434734-.6425858.4505519-1.1219798.9033721-1.4574141-2.2482227-.3068687-4.1048708-1.0051717-4.9682632-2.68800002-2.0437874.1001212-3.9140456.37248482-5.6462178.78371722 1.5722532-.5696162 3.5114127-.77381823 5.590076-.84084853-.1224912-.73422222-1.1962734-.53228283-1.8628861-.504-1.2390886.05430303-2.7985823.2078788-3.7833316.39228283 1.427362-.50767677 3.4303189-.44432324 5.3640911-.44828283-.5914734-1.84969697-.3864709-4.788.9033721-5.88226263C6.1829873 2.21850504 6.2964051.71555556 6.7741772 0c1.4401215.06448485 2.313438.6909495 3.2182279 1.28884848 1.1219848-.3181818 2.3018126-.47656565 3.8391898-.39228282.646481.03563636 1.3187646.32553535 1.8058937.27971717.4777722-.04468687 1.0043139-.57951515 1.4681924-.78371717C17.7099139.12642424 18.2211443.0248889 18.9124253 0" fill="#63587B" fill-rule="evenodd"/></svg>