<svg width="19" height="19" viewBox="0 0 19 19" xmlns="http://www.w3.org/2000/svg"><g fill="#63587B" fill-rule="evenodd"><path d="M2.43065138-.00000917c-1.339272 0-2.42966493 1.08745608-2.43064525 2.42438503 0 1.33692895 1.09039293 2.42456837 2.43064525 2.42456837 1.33976215 0 2.42960366-1.08763942 2.42960366-2.42456837 0-1.33680672-1.0899334-2.42438503-2.42960366-2.42438503M4.25488216 5.823068H.6061265c-.1735475 0-.31434614.1403514-.31434614.31361344V17.8512422c0 .1732009.14079864.3135523.31434614.3135523h3.6486944c.17360876 0 .3144074-.1404125.3144074-.3135523V6.13668144c.00006126-.17332315-.14070674-.31361345-.31434614-.31361345M13.5827276 5.68515508c-1.3352588 0-2.5086727.4055615-3.2247054 1.06689076v-.61537052c0-.17326203-.1407987-.31361344-.3144074-.31361344H6.54356158c-.1736394 0-.3144074.1403514-.3144074.31361344V17.8512361c0 .1732009.140768.3135523.3144074.3135523h3.64523262c.1736394 0 .3144074-.1404125.3144074-.3135523v-5.7957525c0-1.6629183.3066568-2.69362875 1.8369995-2.69362875 1.5077034.0018029 1.6205323 1.10707415 1.6205323 2.79297175v5.6964095c0 .1732009.1407986.3135523.3144993.3135523h3.6469175c.1735475 0 .3143462-.1404125.3143462-.3135523v-6.4259435c-.0000613-2.67251338-.5290365-5.74013752-4.6537688-5.74013752"/></g></svg>