<svg width="24" height="19" viewBox="0 0 24 19" xmlns="http://www.w3.org/2000/svg"><path d="M23.1079469 2.15228786c-.8253327.3650434-1.7120834.61179946-2.6429044.72274573.9500087-.56805893 1.6796658-1.46755838 2.0232916-2.53944187-.8892477.52606626-1.8739519.90802034-2.9221769 1.11383245C18.7268061.55735318 17.5308185 0 16.2072636 0c-2.5413149 0-4.6016238 2.0550187-4.6016238 4.58987238 0 .3597561.0406972.71007365.1191564 1.04605866-3.8243917-.19147956-7.2151333-2.018794-9.4847105-4.7958593-.3961071.6779128-.6230736 1.46637857-.6230736 2.30758644 0 1.59248764.8123657 2.99742844 2.0471229 3.8205458-.7543208-.02385846-1.4638703-.23032603-2.0842278-.57413277-.0004381.01913923-.0004381.03836584-.0004381.05772354 0 2.22390698 1.5862245 4.07901266 3.6912609 4.50077456-.3860752.1048287-.7926523.1611102-1.2123278.1611102-.2965328 0-.5847859-.0288399-.8658108-.0824996.5856182 1.8234691 2.2849974 3.1507169 4.2986513 3.1876408-1.5748783 1.2312021-3.5590498 1.9649158-5.7150342 1.9649158-.3714435 0-.7377177-.0216737-1.0977275-.0642781 2.0364338 1.3024717 4.455263 2.0623598 7.0539218 2.0623598 8.4640841 0 13.0926495-6.9942036 13.0926495-13.059762 0-.1989954-.004556-.3969421-.0133613-.59384006.899192-.6471065 1.6793592-1.45549804 2.2962559-2.37592828" fill="#63587B" fill-rule="evenodd"/></svg>